<svg xmlns="http://www.w3.org/2000/svg" height="20" width="20"><path d="M10 12.5q1.042 0 1.771-.729.729-.729.729-1.771 0-1.042-.729-1.771Q11.042 7.5 10 7.5q-1.042 0-1.771.729Q7.5 8.958 7.5 10q0 1.042.729 1.771.729.729 1.771.729Zm0 1.5q-1.667 0-2.833-1.167Q6 11.667 6 10q0-1.667 1.167-2.833Q8.333 6 10 6q1.667 0 2.833 1.167Q14 8.333 14 10q0 1.667-1.167 2.833Q11.667 14 10 14Zm-8.25-3.25q-.312 0-.531-.219Q1 10.312 1 10q0-.312.219-.531.219-.219.531-.219h2q.312 0 .531.219.219.219.219.531 0 .312-.219.531-.219.219-.531.219Zm14.5 0q-.312 0-.531-.219-.219-.219-.219-.531 0-.312.219-.531.219-.219.531-.219h2q.312 0 .531.219Q19 9.688 19 10q0 .312-.219.531-.219.219-.531.219ZM10 4.5q-.312 0-.531-.219-.219-.219-.219-.531v-2q0-.312.219-.531Q9.688 1 10 1q.312 0 .531.219.219.219.219.531v2q0 .312-.219.531-.219.219-.531.219ZM10 19q-.312 0-.531-.219-.219-.219-.219-.531v-2q0-.312.219-.531.219-.219.531-.219.312 0 .531.219.219.219.219.531v2q0 .312-.219.531Q10.312 19 10 19ZM5.042 6.104 4 5.042q-.229-.209-.229-.511 0-.302.229-.531.208-.229.521-.229.312 0 .521.229l1.062 1.042q.229.229.229.531 0 .302-.229.531-.208.229-.521.229-.312 0-.541-.229ZM14.958 16l-1.062-1.042q-.229-.229-.229-.531 0-.302.229-.531.208-.229.521-.229.312 0 .541.229L16 14.958q.229.209.229.511 0 .302-.229.531-.229.229-.521.229-.291 0-.521-.229Zm-1.062-9.896q-.229-.208-.229-.521 0-.312.229-.541L14.958 4q.23-.229.521-.219.292.011.521.219.229.229.229.521 0 .291-.229.521l-1.042 1.062q-.229.229-.531.229-.302 0-.531-.229ZM4 16q-.229-.208-.229-.521 0-.312.229-.521l1.042-1.062q.229-.208.531-.208.302 0 .531.208.229.229.219.531-.011.302-.219.531L5.042 16q-.209.229-.511.229-.302 0-.531-.229Zm6-6Z"/></svg>